<?xml version="1.0" encoding="UTF-8"?>
<svg id="Layer_1" data-name="Layer 1" xmlns="http://www.w3.org/2000/svg" viewBox="0 0 1080 1080">
  <defs>
    <style>
      .cls-1 {
        fill: #dda15e;
        stroke-width: 0px;
      }
    </style>
  </defs>
  <rect class="cls-1" x="239.99" y="337.5" width="120" height="67.5"/>
  <polygon class="cls-1" points="287.73 694.77 240 742.5 60.01 562.51 60.01 517.49 85.23 492.27 287.73 694.77"/>
  <polygon class="cls-1" points="287.73 385.23 132.96 540 85.23 587.73 60.01 562.51 60.01 517.49 85.23 492.27 240 337.5 287.73 385.23"/>
  <rect class="cls-1" x="240" y="675" width="120" height="67.5"/>
  <rect class="cls-1" x="539.99" y="337.5" width="120" height="67.5"/>
  <polygon class="cls-1" points="587.72 694.77 539.99 742.5 360 562.51 360 517.49 385.22 492.27 587.72 694.77"/>
  <polygon class="cls-1" points="587.72 385.23 432.95 540 385.22 587.73 360 562.51 360 517.49 385.22 492.27 539.99 337.5 587.72 385.23"/>
  <rect class="cls-1" x="539.99" y="675" width="120" height="67.5"/>
  <rect class="cls-1" x="839.98" y="337.5" width="180.01" height="67.5"/>
  <polygon class="cls-1" points="887.71 694.77 839.98 742.5 659.99 562.51 659.99 517.49 685.21 492.27 887.71 694.77"/>
  <polygon class="cls-1" points="887.71 385.23 732.94 540 685.21 587.73 659.99 562.51 659.99 517.49 685.21 492.27 839.98 337.5 887.71 385.23"/>
  <rect class="cls-1" x="839.98" y="675" width="180.01" height="67.5"/>
  <rect class="cls-1" x="952.49" y="540" width="67.5" height="202.5"/>
</svg>